<?xml version="1.0" encoding="UTF-8"?>
<!-- Created with Inkscape (http://www.inkscape.org/) -->
<svg width="245.45mm" height="104.67mm" version="1.1" viewBox="0 0 245.45 104.67" xmlns="http://www.w3.org/2000/svg" xmlns:cc="http://creativecommons.org/ns#" xmlns:dc="http://purl.org/dc/elements/1.1/" xmlns:rdf="http://www.w3.org/1999/02/22-rdf-syntax-ns#"><defs><marker id="marker5843" overflow="visible" orient="auto"><path transform="matrix(.2 0 0 .2 1.48 .2)" d="m-2.5-1c0 2.76-2.24 5-5 5s-5-2.24-5-5 2.24-5 5-5 5 2.24 5 5z" fill="#b8b8b8" fill-rule="evenodd" stroke="#b8b8b8" stroke-width="1pt"/></marker><marker id="DotS" overflow="visible" orient="auto"><path transform="matrix(.2 0 0 .2 1.48 .2)" d="m-2.5-1c0 2.76-2.24 5-5 5s-5-2.24-5-5 2.24-5 5-5 5 2.24 5 5z" fill="#b8b8b8" fill-rule="evenodd" stroke="#b8b8b8" stroke-width="1pt"/></marker></defs><metadata><rdf:RDF><cc:Work rdf:about=""><dc:format>image/svg+xml</dc:format><dc:type rdf:resource="http://purl.org/dc/dcmitype/StillImage"/><dc:title/></cc:Work></rdf:RDF></metadata><g transform="translate(-208.26 547.71)"><g transform="matrix(.20997 0 0 .20997 261.49 -391.36)" stroke-width="8.2013"><path d="m-196.42-380.97 1060.2-300.69s-1138.6 776.01-898.96 120.9l46.498-127.09" fill="none" marker-end="url(#DotS)" marker-start="url(#marker5843)" stroke="#b8b8b8" stroke-linecap="round" stroke-linejoin="round" style="paint-order:normal"/><path d="m463.88-614.61c-1.9517-0.0123-4.0556 4e-3 -6.2406 0.0549-11.903 0.27556-15.319 0.68853-16.406 1.9771-1.5142 1.7953-38.122 172.23-37.622 175.16 0.25998 1.5196 2.6096 1.7044 18.408 1.4452l18.109-0.29648 10.718-49.096 10.718-49.092h16.84c19.221 0 22.868 0.98411 24.77 6.6941 1.0893 3.2702 0.37111 7.7645-7.5947 47.552l-8.7983 43.943h36.889l9.9744-45.568c6.2807-28.697 9.9836-47.604 10.004-51.065 0.0484-8.4626-2.921-17.915-7.0883-22.564-7.7514-8.6467-18.069-11.34-47.058-12.282l-20.741-0.67385 9.3959-44.208-2.742-1.1337c-1.1958-0.49483-5.6812-0.8052-11.536-0.84342zm-145.05 46.541c-16.078-0.0205-31.081 0.31944-33.106 1.032l-3.007 1.0574-18.525 87.148c-14.1 66.336-18.28 87.461-17.499 88.452v2e-3c1.4332 1.82 33.162 1.82 35.369 0 1.1242-0.92711 2.926-7.6429 6.2597-23.327l4.6831-22.025 20.347-0.0205c23.1-0.0205 32.037-1.3646 43.742-6.5691 13.169-5.8558 26.112-18.415 34.579-33.555 5.332-9.535 10.852-31.563 10.864-43.36 0.0246-21.729-10.545-38.21-28.622-44.623-3.0178-1.0706-10.005-2.4611-15.526-3.0917-6.3274-0.72274-23.481-1.1014-39.559-1.121zm282.51 0.37316c-16.811 0.0746-31.281 0.65155-32.229 1.7715-0.84006 0.99268-8.5067 35.133-19.654 87.532-16.31 76.664-18.131 86.089-16.933 87.61 1.0999 1.3968 4.2206 1.7012 17.27 1.6889 8.761-8e-3 16.759-0.47982 17.775-1.0447 1.5213-0.84653 2.7344-4.9261 6.8933-23.204l5.0454-22.176 23.091-0.45557c21.214-0.42032 23.826-0.68661 32.129-3.2591 26.645-8.2549 47.704-34.752 52.398-65.934 3.08-20.46 0.2325-34.624-9.1882-45.7-6.5736-7.7286-13.5-11.993-23.911-14.725-5.5878-1.4667-31.071-2.2001-52.686-2.1042zm-0.63146 31.858 16.425 0.57212c22.615 0.78769 27.59 3.0426 30.292 13.725 1.3693 5.4145 1.2516 7.4038-1.0977 18.542-4.8042 22.776-11.807 31.026-29.353 34.585-3.3047 0.67024-11.599 1.2185-18.432 1.2185h-12.424l7.2938-34.32zm-286.44 0.0287 16.427 0.56154c9.0344 0.30878 18.151 1.1267 20.258 1.8181 4.8641 1.5962 10.006 7.107 10.958 11.742 1.2188 5.9375-0.37029 18.946-3.4096 27.902-4.4122 13.002-11.014 20.405-21.388 23.979-3.6547 1.2593-10.152 1.9722-21.369 2.3458l-16.118 0.53612 7.3213-34.441z" fill="#777bb3" opacity=".9" stroke="#3416d9"/><path d="m67.325-627.12c-9.5196 0-17.801 0.40679-18.404 0.90272-0.60267 0.49593-3.3545 10.826-6.1155 22.956l-5.0201 22.053-10.78 0.3707c-5.9285 0.20421-11.27 0.77773-11.871 1.2736-1.6737 1.3799-6.5618 22.57-5.9863 25.95 0.50753 2.9803 0.51861 2.9836 11.384 2.9836h10.877l-6.622 31.192c-9.0609 42.68-9.1774 50.213-0.93449 60.482 3.1332 3.9034 5.9186 5.8566 11.042 7.7388 6.1931 2.2752 8.8091 2.5204 27.154 2.545 18.974 0.0246 20.4-0.10867 21.867-2.0703 2.2759-3.0437 6.3567-23.114 5.1366-25.263-0.75513-1.3304-3.5107-1.8382-11.746-2.1593-11.796-0.46005-15.478-1.814-18.023-6.6305-1.5383-2.9119-1.3095-4.5876 4.7213-34.447l6.3401-31.387h16.84c15.984 0 16.927-0.11441 18.54-2.2716 1.9351-2.5879 6.393-25.214 5.2531-26.662-0.39038-0.49572-8.2051-1.0592-17.366-1.2502l-16.656-0.34732 4.522-21.352c2.487-11.743 4.2154-22.084 3.8397-22.979-0.56035-1.3354-3.7881-1.6274-17.993-1.6274zm243.81 46.138c-16.078-0.0205-31.081 0.31944-33.106 1.032l-3.007 1.0574-18.525 87.148c-14.1 66.336-18.28 87.461-17.499 88.452v2e-3c1.4332 1.82 33.162 1.82 35.369 0 1.1242-0.92711 2.926-7.6429 6.2597-23.327l4.6831-22.025 20.347-0.0205c23.1-0.0205 32.037-1.3646 43.742-6.5691 13.169-5.8558 26.112-18.417 34.579-33.557 5.332-9.535 10.852-31.563 10.864-43.36 0.0246-21.729-10.545-38.208-28.622-44.621-3.0178-1.0706-10.005-2.4632-15.526-3.0938-6.3274-0.72269-23.481-1.0992-39.559-1.1189zm-138.09 0.61029c-35.311-0.0824-41.164 0.12958-42.351 1.5321-2.1503 2.5406-7.0044 26.625-5.6431 27.997 0.71966 0.72524 14.063 1.2669 36.84 1.4982 30.592 0.31083 36.237 0.62575 39.37 2.1868 4.4447 2.2146 6.8042 7.6192 5.6685 12.988l-0.84341 3.9817-31.824 0.42384c-29.369 0.3912-32.355 0.60615-38.675 2.7781-13.62 4.6808-20.874 10.453-27.171 21.616-4.9297 8.7403-8.56 25.682-7.2068 33.638 1.8622 10.949 7.3498 17.224 18.372 21.006 5.1784 1.777 10.564 1.9708 56.219 2.0237 37.892 0.0439 50.887-0.26696 52.072-1.2439 2.0044-1.653 18.832-80.153 19.599-91.429 0.65151-9.5756-1.2747-17.474-5.8295-23.896-4.6567-6.5661-9.6137-9.7785-19.533-12.657-7.5928-2.2031-10.594-2.3539-49.062-2.4433zm133.54 31.648 16.427 0.56154c9.0344 0.30878 18.151 1.1267 20.258 1.8181 4.8641 1.5962 10.006 7.1069 10.958 11.742 1.2188 5.9375-0.3707 18.946-3.4096 27.902-4.4122 13.002-11.014 20.405-21.388 23.979-3.6547 1.2593-10.152 1.9722-21.369 2.3458l-16.118 0.53612 7.3213-34.443zm-136.39 48.098c3.1291 4e-3 6.641 0.0496 10.591 0.11646l19.459 0.32846-1.9368 10.578-1.9389 10.578h-51.171l-2.1995-2.7929c-1.9397-2.4632-2.0026-6.0026-0.48748-8.3385 5.3687-8.2771 5.78-10.506 27.683-10.47z" fill="#d033d0" opacity=".8" stroke="#3416d9"/></g></g></svg>
